<svg width="19" height="19" viewBox="0 0 19 19" fill="none" xmlns="http://www.w3.org/2000/svg">
<path d="M3.95833 6.33334V15.8333H15.0417V6.33334H3.95833ZM3.95833 4.75H15.0417V3.16667H3.95833V4.75ZM15.8333 17.4167H3.16667C2.9567 17.4167 2.75534 17.3333 2.60687 17.1848C2.45841 17.0363 2.375 16.835 2.375 16.625V2.375C2.375 2.16504 2.45841 1.96368 2.60687 1.81521C2.75534 1.66674 2.9567 1.58334 3.16667 1.58334H15.8333C16.0433 1.58334 16.2447 1.66674 16.3931 1.81521C16.5416 1.96368 16.625 2.16504 16.625 2.375V16.625C16.625 16.835 16.5416 17.0363 16.3931 17.1848C16.2447 17.3333 16.0433 17.4167 15.8333 17.4167ZM5.54167 7.91667H8.70833V11.0833H5.54167V7.91667ZM5.54167 12.6667H13.4583V14.25H5.54167V12.6667ZM10.2917 8.70834H13.4583V10.2917H10.2917V8.70834Z" fill="#333333"/>
</svg>
