<svg width="19" height="19" viewBox="0 0 19 19" fill="none" xmlns="http://www.w3.org/2000/svg">
<path d="M3.97485 6.02941C3.97485 5.44438 4.19872 4.8833 4.59722 4.46962C4.99571 4.05593 5.53619 3.82353 6.09975 3.82353C6.6633 3.82353 7.20378 4.05593 7.60227 4.46962C8.00077 4.8833 8.22464 5.44438 8.22464 6.02941C8.22464 6.61445 8.00077 7.17552 7.60227 7.58921C7.20378 8.00289 6.6633 8.23529 6.09975 8.23529C5.53619 8.23529 4.99571 8.00289 4.59722 7.58921C4.19872 7.17552 3.97485 6.61445 3.97485 6.02941ZM6.09975 2.5C5.19805 2.5 4.33329 2.87185 3.6957 3.53374C3.05811 4.19563 2.69992 5.09335 2.69992 6.02941C2.69992 6.96547 3.05811 7.86319 3.6957 8.52508C4.33329 9.18698 5.19805 9.55882 6.09975 9.55882C7.00144 9.55882 7.8662 9.18698 8.50379 8.52508C9.14138 7.86319 9.49958 6.96547 9.49958 6.02941C9.49958 5.09335 9.14138 4.19563 8.50379 3.53374C7.8662 2.87185 7.00144 2.5 6.09975 2.5ZM12.4744 6.91176C12.4744 6.56074 12.6087 6.2241 12.8478 5.97589C13.0869 5.72768 13.4112 5.58824 13.7494 5.58824C14.0875 5.58824 14.4118 5.72768 14.6509 5.97589C14.89 6.2241 15.0243 6.56074 15.0243 6.91176C15.0243 7.26279 14.89 7.59943 14.6509 7.84764C14.4118 8.09585 14.0875 8.23529 13.7494 8.23529C13.4112 8.23529 13.0869 8.09585 12.8478 7.84764C12.6087 7.59943 12.4744 7.26279 12.4744 6.91176ZM13.7494 4.26471C13.0731 4.26471 12.4245 4.54359 11.9463 5.04001C11.4681 5.53643 11.1995 6.20972 11.1995 6.91176C11.1995 7.61381 11.4681 8.2871 11.9463 8.78352C12.4245 9.27994 13.0731 9.55882 13.7494 9.55882C14.4256 9.55882 15.0742 9.27994 15.5524 8.78352C16.0306 8.2871 16.2992 7.61381 16.2992 6.91176C16.2992 6.20972 16.0306 5.53643 15.5524 5.04001C15.0742 4.54359 14.4256 4.26471 13.7494 4.26471ZM11.4103 15.7688C12.0078 16.0203 12.7736 16.1765 13.7502 16.1765C15.6898 16.1765 16.7982 15.5615 17.4025 14.8018C17.6957 14.4329 17.8445 14.0606 17.921 13.7756C17.9647 13.6105 17.9912 13.441 18 13.27V13.2462C17.9998 12.7363 17.8046 12.2474 17.4573 11.8869C17.11 11.5264 16.6391 11.3238 16.1479 11.3235H11.3525C11.3287 11.3235 11.3055 11.3241 11.2828 11.3253C11.6177 11.6871 11.8608 12.1415 11.9764 12.6471H16.1479C16.4641 12.6471 16.7208 12.9109 16.7251 13.2374L16.7225 13.2656C16.7191 13.2997 16.7086 13.3526 16.6911 13.4244C16.6386 13.6206 16.5458 13.8027 16.4191 13.9582C16.1216 14.3341 15.4229 14.8529 13.7502 14.8529C12.9173 14.8529 12.3257 14.7241 11.9058 14.5485C11.814 14.9015 11.6627 15.3276 11.4103 15.7688ZM2.9124 11.3235C2.4052 11.3235 1.91878 11.5327 1.56013 11.905C1.20148 12.2773 1 12.7823 1 13.3088V13.5541C1.00089 13.6155 1.00486 13.6767 1.0119 13.7376C1.08255 14.3941 1.30983 15.0219 1.67317 15.5641C2.36843 16.5947 3.69607 17.5 6.09975 17.5C8.50343 17.5 9.83106 16.5956 10.5263 15.5632C10.8897 15.021 11.1169 14.3932 11.1876 13.7368C11.1936 13.676 11.1976 13.6151 11.1995 13.5541V13.3088C11.1995 12.7823 10.998 12.2773 10.6394 11.905C10.2807 11.5327 9.79429 11.3235 9.28709 11.3235H2.9124ZM2.27494 13.5356V13.3088C2.27494 13.1333 2.3421 12.965 2.46165 12.8409C2.58119 12.7168 2.74334 12.6471 2.9124 12.6471H9.28709C9.45615 12.6471 9.61829 12.7168 9.73784 12.8409C9.85739 12.965 9.92455 13.1333 9.92455 13.3088V13.5356L9.9186 13.6062C9.86969 14.0367 9.71967 14.4482 9.48173 14.8044C9.0627 15.4265 8.15834 16.1765 6.09975 16.1765C4.04115 16.1765 3.13679 15.4265 2.71691 14.8044C2.47927 14.4481 2.32955 14.0366 2.28089 13.6062L2.27494 13.5356Z" fill="#333333"/>
</svg>
