<svg width="19" height="19" viewBox="0 0 19 19" fill="none" xmlns="http://www.w3.org/2000/svg">
<path d="M9.5 16.625V2.375M9.5 7.91667H16.625M4.275 2.375H14.725C15.2289 2.375 15.7122 2.57518 16.0685 2.9315C16.4248 3.28782 16.625 3.77109 16.625 4.275V14.725C16.625 15.2289 16.4248 15.7122 16.0685 16.0685C15.7122 16.4248 15.2289 16.625 14.725 16.625H4.275C3.77109 16.625 3.28782 16.4248 2.9315 16.0685C2.57518 15.7122 2.375 15.2289 2.375 14.725V4.275C2.375 4.02549 2.42415 3.77842 2.51963 3.5479C2.61511 3.31738 2.75507 3.10793 2.9315 2.9315C3.28782 2.57518 3.77109 2.375 4.275 2.375Z" stroke="#121212" stroke-width="1.5" stroke-miterlimit="10" stroke-linecap="round" stroke-linejoin="round"/>
</svg>
