<svg width="19" height="19" viewBox="0 0 19 19" fill="none" xmlns="http://www.w3.org/2000/svg">
<path d="M7.91667 5.54167C11.0833 5.54167 13.9861 4.48611 16.625 2.375V14.25C13.9861 12.1389 11.0833 11.0833 7.91667 11.0833H3.95833C3.53841 11.0833 3.13568 10.9165 2.83875 10.6196C2.54181 10.3227 2.375 9.91993 2.375 9.5V7.125C2.375 6.70507 2.54181 6.30235 2.83875 6.00541C3.13568 5.70848 3.53841 5.54167 3.95833 5.54167H7.91667ZM7.91667 5.54167V15.0417C7.91667 15.4616 7.74985 15.8643 7.45292 16.1613C7.15599 16.4582 6.75326 16.625 6.33333 16.625C5.91341 16.625 5.51068 16.4582 5.21375 16.1613C4.91681 15.8643 4.75 15.4616 4.75 15.0417V11.0833" stroke="#333333" stroke-width="1.58333" stroke-linecap="round" stroke-linejoin="round"/>
</svg>
