<svg width="19" height="19" viewBox="0 0 19 19" fill="none" xmlns="http://www.w3.org/2000/svg">
<path d="M9.5 3.85938C9.99188 3.85938 10.3906 3.46063 10.3906 2.96875C10.3906 2.47687 9.99188 2.07812 9.5 2.07812C9.00812 2.07812 8.60938 2.47687 8.60938 2.96875C8.60938 3.46063 9.00812 3.85938 9.5 3.85938Z" stroke="black" stroke-width="2.25" stroke-linecap="round" stroke-linejoin="round"/>
<path d="M9.5 10.3906C9.99188 10.3906 10.3906 9.99188 10.3906 9.5C10.3906 9.00812 9.99188 8.60938 9.5 8.60938C9.00812 8.60938 8.60938 9.00812 8.60938 9.5C8.60938 9.99188 9.00812 10.3906 9.5 10.3906Z" stroke="black" stroke-width="2.25" stroke-linecap="round" stroke-linejoin="round"/>
<path d="M9.5 16.9219C9.99188 16.9219 10.3906 16.5231 10.3906 16.0312C10.3906 15.5394 9.99188 15.1406 9.5 15.1406C9.00812 15.1406 8.60938 15.5394 8.60938 16.0312C8.60938 16.5231 9.00812 16.9219 9.5 16.9219Z" stroke="black" stroke-width="2.25" stroke-linecap="round" stroke-linejoin="round"/>
</svg>
