<svg width="19" height="19" viewBox="0 0 19 19" fill="none" xmlns="http://www.w3.org/2000/svg">
<path d="M6.33335 7.91667H12.6667M6.33335 14.25H12.6667M6.33335 11.0833H9.50002M3.16669 16.9417V2.05834C3.16669 1.93236 3.21673 1.81154 3.30581 1.72246C3.39489 1.63338 3.51571 1.58334 3.64169 1.58334H12.8662C12.9921 1.58345 13.1129 1.63356 13.2019 1.72267L15.694 4.21484C15.7383 4.25909 15.7735 4.31167 15.7974 4.36955C15.8213 4.42743 15.8335 4.48946 15.8334 4.55209V16.9417C15.8334 17.004 15.8211 17.0658 15.7972 17.1234C15.7733 17.1811 15.7383 17.2334 15.6942 17.2775C15.6501 17.3217 15.5978 17.3566 15.5401 17.3805C15.4825 17.4044 15.4207 17.4167 15.3584 17.4167H3.64169C3.57931 17.4167 3.51754 17.4044 3.45991 17.3805C3.40228 17.3566 3.34992 17.3217 3.30581 17.2775C3.2617 17.2334 3.22672 17.1811 3.20284 17.1234C3.17897 17.0658 3.16669 17.004 3.16669 16.9417Z" stroke="#333333" stroke-width="1.1875" stroke-linecap="round" stroke-linejoin="round"/>
<path d="M12.6667 1.58334V4.275C12.6667 4.40098 12.7167 4.5218 12.8058 4.61088C12.8949 4.69996 13.0157 4.75 13.1417 4.75H15.8334" stroke="#333333" stroke-width="1.1875" stroke-linecap="round" stroke-linejoin="round"/>
</svg>
