<svg width="19" height="19" viewBox="0 0 19 19" fill="none" xmlns="http://www.w3.org/2000/svg">
<g clip-path="url(#clip0_28_192)">
<path d="M0.633362 4.43083L8.71263 0.970591C9.21548 0.755231 9.78458 0.755232 10.2874 0.970592L18.3667 4.43083M0.633362 4.43083L9.50003 8.22829M0.633362 4.43083V4.43336M18.3667 4.43083L9.50003 8.22829M18.3667 4.43083V13.2479C18.3667 14.048 17.8899 14.771 17.1545 15.0862L9.50003 18.3667M18.3667 4.43083L10.7117 7.71371C9.97662 8.02897 9.50003 8.75193 9.50003 9.55181V18.3667M9.50003 8.22829V18.3667M9.50003 8.22829L0.633362 4.43336M0.633362 4.43336V13.2479C0.633362 14.048 1.11016 14.771 1.84552 15.0862L9.50003 18.3667" stroke="#333333" stroke-width="1.26667" stroke-linejoin="round"/>
</g>
<defs>
<clipPath id="clip0_28_192">
<rect width="19" height="19" fill="white"/>
</clipPath>
</defs>
</svg>
