<svg width="19" height="19" viewBox="0 0 19 19" fill="none" xmlns="http://www.w3.org/2000/svg">
<g clip-path="url(#clip0_28_221)">
<path d="M3.52246 8.37289C2.85645 9.02364 2.89479 9.89119 3.60729 10.5959L5.12559 12.1295C4.33573 12.633 2.80996 13.2525 2.08186 13.9809C0.943214 15.1196 0.951018 16.6532 2.11239 17.8227C3.28225 18.9844 4.81582 19 5.95446 17.8614C6.69037 17.1254 7.30211 15.5997 7.80561 14.8173L9.35478 16.3434C10.0598 17.0403 10.9196 17.079 11.5778 16.4207L12.4067 15.5688C12.9332 15.0266 13.0184 14.3603 12.6391 13.7485C12.9797 13.6634 13.2973 13.4696 13.545 13.2142L17.1468 9.59669C18.0066 8.74509 17.9835 7.73028 17.0925 6.83932L10.8578 0.604264C10.2997 0.0542821 9.54105 -3.62098e-06 9.02195 0.519103C8.78954 0.751175 8.61141 1.08435 8.51845 1.53357C8.10011 3.4546 7.25562 5.24366 6.26423 6.50648C6.09391 6.73109 5.97787 6.94755 5.92359 7.1725C5.38921 6.95535 4.83109 7.07173 4.36661 7.52875L3.52246 8.37289ZM12.4609 12.5712C12.1352 12.8888 11.8333 12.8654 11.5082 12.5325H11.5004L7.33332 8.36509L7.34112 8.35762C7.03916 8.06312 6.89937 7.73775 7.33332 7.11041C8.23175 5.81705 9.12237 4.04326 9.64929 2.06794C9.68016 1.97532 9.71884 1.89762 9.78839 1.82807C9.91257 1.69642 10.0829 1.65741 10.2532 1.83553L14.0176 5.59244C13.8164 6.8858 12.786 8.17169 11.9961 8.96155C11.9188 9.03925 11.818 9.14748 11.9418 9.27166C12.3293 9.65878 14.6527 7.99357 15.598 7.1803L16.1476 7.72248C16.5195 8.09434 16.5273 8.49707 16.1941 8.82991L12.4609 12.5712ZM4.56814 9.1088L5.10252 8.58223C5.34273 8.34982 5.6603 8.34201 5.90798 8.5975L11.3457 14.043C11.5859 14.2985 11.5934 14.5927 11.3535 14.8329L10.8422 15.3673C10.5945 15.6149 10.2848 15.6075 10.0367 15.352L8.08484 13.4079C7.81375 13.129 7.50398 13.2372 7.22509 13.6013C6.65984 14.4067 5.70712 16.4364 5.14187 16.9941C4.47552 17.6446 3.59236 17.6598 2.93414 17.0016C2.27593 16.3434 2.28339 15.4524 2.94195 14.7942C3.49939 14.2364 5.52866 13.2759 6.34227 12.7107C6.69852 12.4318 6.81455 12.122 6.52786 11.8509L4.58375 9.91426C4.33607 9.67439 4.32827 9.34901 4.56848 9.1088M3.45291 16.4903C3.70873 16.738 4.08059 16.738 4.32827 16.4903C4.57595 16.227 4.56848 15.863 4.32827 15.6149C4.07279 15.3673 3.69312 15.3595 3.45291 15.6149C3.22084 15.8786 3.20523 16.2348 3.45291 16.4903Z" fill="#333333"/>
</g>
<defs>
<clipPath id="clip0_28_221">
<rect width="19" height="19" fill="white"/>
</clipPath>
</defs>
</svg>
